<svg width="42" height="42" viewBox="0 0 42 42" fill="none" xmlns="http://www.w3.org/2000/svg">
<g filter="url(#filter0_b_1398_995)">
<circle cx="20.9406" cy="20.796" r="20.796" fill="#70E289"/>
<circle cx="20.9406" cy="20.796" r="20.296" stroke="url(#paint0_linear_1398_995)"/>
</g>
<path d="M21.527 20.5102C22.1272 19.9906 22.6087 19.3479 22.9387 18.6258C23.2687 17.9038 23.4395 17.1191 23.4395 16.3252C23.4395 14.8334 22.8468 13.4026 21.7919 12.3477C20.737 11.2928 19.3063 10.7002 17.8145 10.7002C16.3226 10.7002 14.8919 11.2928 13.837 12.3477C12.7821 13.4026 12.1895 14.8334 12.1895 16.3252C12.1894 17.1191 12.3602 17.9038 12.6902 18.6258C13.0202 19.3479 13.5017 19.9906 14.102 20.5102C12.5271 21.2233 11.191 22.3749 10.2533 23.8273C9.31564 25.2797 8.81611 26.9714 8.81445 28.7002C8.81445 28.9986 8.93298 29.2847 9.14396 29.4957C9.35494 29.7067 9.64108 29.8252 9.93945 29.8252C10.2378 29.8252 10.524 29.7067 10.7349 29.4957C10.9459 29.2847 11.0645 28.9986 11.0645 28.7002C11.0645 26.91 11.7756 25.1931 13.0415 23.9272C14.3074 22.6614 16.0242 21.9502 17.8145 21.9502C19.6047 21.9502 21.3216 22.6614 22.5874 23.9272C23.8533 25.1931 24.5645 26.91 24.5645 28.7002C24.5645 28.9986 24.683 29.2847 24.894 29.4957C25.1049 29.7067 25.3911 29.8252 25.6895 29.8252C25.9878 29.8252 26.274 29.7067 26.4849 29.4957C26.6959 29.2847 26.8145 28.9986 26.8145 28.7002C26.8128 26.9714 26.3133 25.2797 25.3756 23.8273C24.4379 22.3749 23.1018 21.2233 21.527 20.5102ZM17.8145 19.7002C17.1469 19.7002 16.4944 19.5023 15.9394 19.1314C15.3844 18.7606 14.9518 18.2335 14.6964 17.6168C14.4409 17.0001 14.3741 16.3215 14.5043 15.6668C14.6345 15.0121 14.956 14.4107 15.428 13.9387C15.9 13.4667 16.5013 13.1453 17.156 13.015C17.8107 12.8848 18.4893 12.9517 19.106 13.2071C19.7227 13.4625 20.2498 13.8951 20.6207 14.4501C20.9915 15.0052 21.1895 15.6577 21.1895 16.3252C21.1895 17.2203 20.8339 18.0787 20.2009 18.7117C19.568 19.3446 18.7096 19.7002 17.8145 19.7002ZM28.772 20.0602C29.4919 19.2494 29.9622 18.2479 30.1262 17.1761C30.2902 16.1043 30.141 15.0079 29.6964 14.0189C29.2519 13.03 28.531 12.1906 27.6205 11.6018C26.71 11.013 25.6487 10.6999 24.5645 10.7002C24.2661 10.7002 23.9799 10.8187 23.769 11.0297C23.558 11.2407 23.4395 11.5268 23.4395 11.8252C23.4395 12.1236 23.558 12.4097 23.769 12.6207C23.9799 12.8317 24.2661 12.9502 24.5645 12.9502C25.4596 12.9502 26.318 13.3058 26.9509 13.9387C27.5839 14.5716 27.9395 15.4301 27.9395 16.3252C27.9379 16.9161 27.7812 17.4962 27.485 18.0075C27.1889 18.5189 26.7637 18.9435 26.252 19.2389C26.0852 19.3352 25.9459 19.4726 25.8474 19.638C25.7489 19.8035 25.6945 19.9915 25.6895 20.1839C25.6847 20.3749 25.7288 20.564 25.8173 20.7332C25.9059 20.9025 26.0361 21.0464 26.1957 21.1514L26.6345 21.4439L26.7807 21.5227C28.1368 22.1659 29.2808 23.1832 30.0781 24.4548C30.8753 25.7264 31.2926 27.1994 31.2807 28.7002C31.2807 28.9986 31.3992 29.2847 31.6102 29.4957C31.8212 29.7067 32.1073 29.8252 32.4057 29.8252C32.7041 29.8252 32.9902 29.7067 33.2012 29.4957C33.4122 29.2847 33.5307 28.9986 33.5307 28.7002C33.5399 26.9738 33.1075 25.2737 32.2746 23.7615C31.4417 22.2493 30.236 20.9752 28.772 20.0602Z" fill="black"/>
<defs>
<filter id="filter0_b_1398_995" x="-15.8555" y="-16" width="73.5918" height="73.5918" filterUnits="userSpaceOnUse" color-interpolation-filters="sRGB">
<feFlood flood-opacity="0" result="BackgroundImageFix"/>
<feGaussianBlur in="BackgroundImage" stdDeviation="8"/>
<feComposite in2="SourceAlpha" operator="in" result="effect1_backgroundBlur_1398_995"/>
<feBlend mode="normal" in="SourceGraphic" in2="effect1_backgroundBlur_1398_995" result="shape"/>
</filter>
<linearGradient id="paint0_linear_1398_995" x1="43.8162" y1="-9.7624" x2="-98.4421" y2="-9.57732" gradientUnits="userSpaceOnUse">
<stop stop-color="#C4C4C4"/>
<stop offset="1" stop-color="#C4C4C4" stop-opacity="0"/>
</linearGradient>
</defs>
</svg>
