<svg width="27" height="27" viewBox="0 0 27 27" fill="none" xmlns="http://www.w3.org/2000/svg">
<g clip-path="url(#clip0_104_478)">
<path d="M7.73481 26.3471C7.2222 26.0061 6.76788 25.5847 6.38931 25.0991C5.9729 24.598 5.58707 24.0721 5.23394 23.5245C4.40526 22.3105 3.75538 20.9836 3.30425 19.5847C2.76232 17.9597 2.49988 16.4021 2.49988 14.8787C2.49988 13.1773 2.86794 11.6921 3.58782 10.4441C4.12145 9.46862 4.90603 8.65346 5.86038 8.08295C6.78525 7.50848 7.84795 7.19411 8.9365 7.17295C9.31756 7.17295 9.72788 7.2282 10.1634 7.33382C10.4762 7.42238 10.8573 7.56213 11.3228 7.73601C11.9151 7.96432 12.2409 8.10407 12.3514 8.1382C12.6984 8.26495 12.9901 8.3202 13.2192 8.3202C13.3931 8.3202 13.6384 8.26495 13.9171 8.18045C14.0739 8.1252 14.3697 8.0277 14.793 7.84651C15.2123 7.69376 15.5421 7.56295 15.8046 7.46545C16.2068 7.34682 16.5959 7.23713 16.9429 7.18188C17.3542 7.11704 17.7716 7.09986 18.1868 7.1307C18.9064 7.17773 19.6151 7.33021 20.2904 7.58326C21.3946 8.0277 22.2875 8.72157 22.9521 9.70795C22.6712 9.88109 22.4076 10.0808 22.1648 10.3043C21.6364 10.7728 21.1863 11.3228 20.8315 11.9334C20.3678 12.7679 20.1274 13.7079 20.1336 14.6626C20.1506 15.835 20.4513 16.8677 21.0436 17.7606C21.479 18.4224 22.045 18.9884 22.7067 19.4238C23.0456 19.6521 23.3373 19.8089 23.6168 19.9146C23.4859 20.3208 23.3462 20.7141 23.1812 21.1041C22.8072 21.9786 22.3538 22.8171 21.8268 23.609C21.3572 24.2907 20.9891 24.7985 20.7096 25.1365C20.2741 25.6524 19.8549 26.0465 19.4316 26.3211C18.966 26.6299 18.4159 26.7948 17.8569 26.7948C17.4784 26.8094 17.0999 26.7636 16.7357 26.6591C16.4229 26.5535 16.1133 26.4389 15.8086 26.3081C15.4919 26.1626 15.1652 26.0396 14.8312 25.9401C14.0054 25.728 13.1397 25.7266 12.3133 25.936C11.9744 26.0335 11.6486 26.1473 11.3269 26.287C10.8743 26.4771 10.5737 26.6047 10.3998 26.6591C10.0529 26.7607 9.69294 26.8241 9.32894 26.8452C8.76588 26.8452 8.241 26.6843 7.721 26.3585L7.73481 26.3471ZM15.1611 6.34745C14.4249 6.71551 13.7221 6.87232 13.0242 6.82113C12.9145 6.11832 13.0242 5.39926 13.3159 4.61195C13.5642 3.94494 13.9311 3.32834 14.3989 2.79195C14.8929 2.22728 15.4924 1.76444 16.1637 1.42938C16.8787 1.06132 17.5604 0.862258 18.212 0.833008C18.2965 1.56913 18.212 2.29307 17.9414 3.07551C17.6911 3.76718 17.3248 4.4112 16.8584 4.98001C16.3823 5.54545 15.7981 6.01008 15.1399 6.34663L15.1611 6.34745Z" fill="black"/>
</g>
<defs>
<clipPath id="clip0_104_478">
<rect width="26" height="26" fill="white" transform="translate(0.0664673 0.833984)"/>
</clipPath>
</defs>
</svg>
