<svg width="30" height="30" viewBox="0 0 30 30" fill="none" xmlns="http://www.w3.org/2000/svg">
<path d="M26.25 9.99981C26.2456 9.52076 26.1037 9.05306 25.8411 8.65237C25.5785 8.25168 25.2063 7.93488 24.7688 7.73967C24.3313 7.54446 23.8469 7.47906 23.3733 7.55126C22.8997 7.62346 22.4569 7.83021 22.0974 8.14691C21.7379 8.46361 21.4771 8.87692 21.3458 9.33765C21.2145 9.79838 21.2184 10.2871 21.3569 10.7457C21.4955 11.2043 21.7629 11.6134 22.1273 11.9244C22.4917 12.2354 22.9378 12.4351 23.4125 12.4998C23.6751 13.2248 23.7856 13.9961 23.7369 14.7656C23.6882 15.5352 23.4815 16.2865 23.1297 16.9726C22.7778 17.6587 22.2884 18.265 21.6918 18.7535C21.0953 19.2421 20.4045 19.6025 19.6625 19.8123C19.3328 19.0535 18.7615 18.4251 18.0375 18.0248C19.0735 16.7394 19.7248 15.1872 19.9161 13.5474C20.1073 11.9075 19.8308 10.2471 19.1183 8.75776C18.4059 7.26846 17.2867 6.0111 15.8899 5.13093C14.4932 4.25076 12.8759 3.78369 11.225 3.78369C9.57404 3.78369 7.95679 4.25076 6.56005 5.13093C5.16331 6.0111 4.04407 7.26846 3.33164 8.75776C2.6192 10.2471 2.34264 11.9075 2.53389 13.5474C2.72515 15.1872 3.37643 16.7394 4.41248 18.0248C3.83873 18.3473 3.35995 18.815 3.02424 19.3811C2.68853 19.9472 2.50772 20.5917 2.49998 21.2498V22.4998C2.49998 23.4944 2.89507 24.4482 3.59833 25.1515C4.30159 25.8547 5.25542 26.2498 6.24998 26.2498H16.25C17.2445 26.2498 18.1984 25.8547 18.9016 25.1515C19.6049 24.4482 20 23.4944 20 22.4998V22.2623C21.122 22.0003 22.175 21.5016 23.0886 20.7995C24.0022 20.0975 24.7552 19.2084 25.2973 18.1917C25.8393 17.1751 26.1579 16.0543 26.2317 14.9045C26.3055 13.7547 26.1327 12.6024 25.725 11.5248C26.0636 11.0884 26.2483 10.5522 26.25 9.99981ZM17.5 22.4998C17.5 22.8313 17.3683 23.1493 17.1339 23.3837C16.8994 23.6181 16.5815 23.7498 16.25 23.7498H6.24998C5.91846 23.7498 5.60052 23.6181 5.3661 23.3837C5.13168 23.1493 4.99998 22.8313 4.99998 22.4998V21.2498C4.99998 20.9183 5.13168 20.6003 5.3661 20.3659C5.60052 20.1315 5.91846 19.9998 6.24998 19.9998H6.76248C8.11629 20.8181 9.66808 21.2507 11.25 21.2507C12.8319 21.2507 14.3837 20.8181 15.7375 19.9998H16.25C16.5815 19.9998 16.8994 20.1315 17.1339 20.3659C17.3683 20.6003 17.5 20.9183 17.5 21.2498V22.4998ZM11.25 18.7498C10.0138 18.7498 8.80547 18.3832 7.77767 17.6965C6.74986 17.0097 5.94878 16.0336 5.47573 14.8916C5.00269 13.7495 4.87892 12.4929 5.12007 11.2805C5.36123 10.0681 5.95649 8.95447 6.83056 8.08039C7.70464 7.20631 8.81829 6.61106 10.0307 6.3699C11.243 6.12874 12.4997 6.25251 13.6418 6.72556C14.7838 7.19861 15.7599 7.99968 16.4467 9.02749C17.1334 10.0553 17.5 11.2637 17.5 12.4998C17.5 13.3206 17.3383 14.1333 17.0242 14.8916C16.7101 15.6499 16.2498 16.3389 15.6694 16.9192C15.089 17.4996 14.4 17.96 13.6418 18.2741C12.8835 18.5881 12.0707 18.7498 11.25 18.7498V18.7498ZM11.25 11.2498C11.0028 11.2498 10.7611 11.3231 10.5555 11.4605C10.35 11.5978 10.1897 11.793 10.0951 12.0215C10.0005 12.2499 9.97577 12.5012 10.024 12.7437C10.0722 12.9861 10.1913 13.2089 10.3661 13.3837C10.5409 13.5585 10.7636 13.6776 11.0061 13.7258C11.2486 13.774 11.4999 13.7493 11.7283 13.6547C11.9567 13.56 12.152 13.3998 12.2893 13.1943C12.4267 12.9887 12.5 12.747 12.5 12.4998C12.5 12.1683 12.3683 11.8503 12.1339 11.6159C11.8994 11.3815 11.5815 11.2498 11.25 11.2498Z" fill="black"/>
</svg>
