<svg width="21" height="17" viewBox="0 0 21 17" fill="none" xmlns="http://www.w3.org/2000/svg">
<path d="M10.8571 12.1921C12.4296 12.1921 13.7044 10.9135 13.7044 9.33627C13.7044 7.75905 12.4296 6.48047 10.8571 6.48047C9.28456 6.48047 8.00977 7.75905 8.00977 9.33627C8.00977 10.9135 9.28456 12.1921 10.8571 12.1921Z" fill="#757272"/>
<path d="M18.6874 3.40853H16.0625C15.929 3.40853 15.7635 3.32196 15.6345 3.18542L14.4804 1.3586C14.4622 1.32961 14.4418 1.30202 14.4195 1.27605C14.0209 0.809756 13.4821 0.552734 12.9037 0.552734H8.81072C8.23236 0.552734 7.69359 0.809756 7.29496 1.27605C7.27264 1.30202 7.25226 1.32961 7.23401 1.3586L6.07996 3.1881C5.98119 3.29608 5.84238 3.41121 5.69646 3.41121V3.05423C5.69646 2.86488 5.62146 2.68329 5.48797 2.5494C5.35447 2.4155 5.17342 2.34028 4.98463 2.34028H3.91688C3.72809 2.34028 3.54704 2.4155 3.41354 2.5494C3.28005 2.68329 3.20505 2.86488 3.20505 3.05423V3.41121H3.02709C2.46091 3.4118 1.91808 3.63765 1.51772 4.03919C1.11737 4.44074 0.89219 4.98518 0.891602 5.55306V14.1178C0.89219 14.6856 1.11737 15.2301 1.51772 15.6316C1.91808 16.0332 2.46091 16.259 3.02709 16.2596H18.6874C19.2536 16.259 19.7964 16.0332 20.1967 15.6316C20.5971 15.2301 20.8223 14.6856 20.8229 14.1178V5.55038C20.8223 4.98251 20.5971 4.43806 20.1967 4.03652C19.7964 3.63497 19.2536 3.40912 18.6874 3.40853ZM10.8572 13.4038C10.0125 13.4038 9.18676 13.1526 8.4844 12.6819C7.78204 12.2112 7.23462 11.5422 6.91136 10.7594C6.5881 9.97668 6.50352 9.11537 6.66831 8.28442C6.83311 7.45346 7.23988 6.69018 7.83719 6.09109C8.4345 5.49201 9.19551 5.08403 10.024 4.91874C10.8525 4.75345 11.7112 4.83828 12.4917 5.16251C13.2721 5.48673 13.9391 6.03578 14.4084 6.74023C14.8777 7.44468 15.1282 8.27289 15.1282 9.12012C15.1269 10.2558 14.6765 11.3447 13.8758 12.1477C13.0752 12.9508 11.9896 13.4025 10.8572 13.4038Z" fill="#757272"/>
</svg>
