<svg width="27" height="27" viewBox="0 0 27 27" fill="none" xmlns="http://www.w3.org/2000/svg">
<path d="M6.48655 16.2996L5.6638 19.371L2.65667 19.4346C1.75798 17.7677 1.24823 15.8606 1.24823 13.834C1.24823 11.8743 1.72484 10.0262 2.56965 8.39893H2.5703L5.24748 8.88975L6.42025 11.5509C6.1748 12.2665 6.04101 13.0347 6.04101 13.834C6.0411 14.7015 6.19825 15.5327 6.48655 16.2996Z" fill="#FBBB00"/>
<path d="M24.6781 11.626C24.8138 12.3409 24.8846 13.0792 24.8846 13.8338C24.8846 14.6799 24.7956 15.5052 24.6262 16.3013C24.0509 19.0104 22.5476 21.376 20.4652 23.05L20.4645 23.0494L17.0924 22.8773L16.6152 19.8981C17.997 19.0877 19.0769 17.8195 19.6457 16.3013H13.3262V11.626H19.7379H24.6781Z" fill="#518EF8"/>
<path d="M20.4645 23.0493L20.4651 23.0499C18.4398 24.6779 15.867 25.6519 13.0664 25.6519C8.56577 25.6519 4.6528 23.1363 2.65668 19.4344L6.48655 16.2993C7.48459 18.9629 10.0541 20.8591 13.0664 20.8591C14.3612 20.8591 15.5742 20.509 16.6151 19.898L20.4645 23.0493Z" fill="#28B446"/>
<path d="M20.61 4.73639L16.7814 7.8708C15.7041 7.19744 14.4307 6.80845 13.0665 6.80845C9.98594 6.80845 7.36839 8.79155 6.42035 11.5507L2.57035 8.39874H2.5697C4.5366 4.60653 8.49892 2.01562 13.0665 2.01562C15.934 2.01562 18.5632 3.03707 20.61 4.73639Z" fill="#F14336"/>
</svg>
