<svg width="21" height="20" viewBox="0 0 21 20" fill="none" xmlns="http://www.w3.org/2000/svg">
<path fill-rule="evenodd" clip-rule="evenodd" d="M14.8765 6.16318V7.44096C16.3117 7.88897 17.3575 9.18828 17.3575 10.7402V14.8543C17.3575 16.7755 15.7647 18.3332 13.801 18.3332H6.74819C4.78365 18.3332 3.19086 16.7755 3.19086 14.8543V10.7402C3.19086 9.18828 4.23748 7.88897 5.67193 7.44096V6.16318C5.6804 3.67883 7.73808 1.6665 10.2615 1.6665C12.8188 1.6665 14.8765 3.67883 14.8765 6.16318ZM10.2784 3.11571C11.9974 3.11571 13.3946 4.4821 13.3946 6.16318V7.26126H7.1538V6.14661C7.16227 4.47382 8.55946 3.11571 10.2784 3.11571ZM11.0151 13.7123C11.0151 14.1181 10.6849 14.441 10.27 14.441C9.8635 14.441 9.53326 14.1181 9.53326 13.7123V11.8739C9.53326 11.4764 9.8635 11.1534 10.27 11.1534C10.6849 11.1534 11.0151 11.4764 11.0151 11.8739V13.7123Z" fill="#212121"/>
</svg>
