<svg width="21" height="18" viewBox="0 0 21 18" fill="none" xmlns="http://www.w3.org/2000/svg">
<path d="M18.2924 0.872559H2.77679C2.09119 0.873292 1.43387 1.14597 0.949071 1.63077C0.464272 2.11557 0.19159 2.77289 0.190857 3.4585V14.5411C0.19159 15.2267 0.464272 15.884 0.949071 16.3688C1.43387 16.8536 2.09119 17.1263 2.77679 17.127H18.2924C18.978 17.1263 19.6353 16.8536 20.1201 16.3688C20.6049 15.884 20.8776 15.2267 20.8784 14.5411V3.4585C20.8776 2.77289 20.6049 2.11557 20.1201 1.63077C19.6353 1.14597 18.978 0.873292 18.2924 0.872559ZM17.6376 5.14998L10.9881 10.3219C10.8584 10.4227 10.6988 10.4774 10.5346 10.4774C10.3704 10.4774 10.2108 10.4227 10.0811 10.3219L3.43159 5.14998C3.35346 5.09098 3.28784 5.01704 3.23854 4.93246C3.18923 4.84788 3.15723 4.75435 3.14439 4.65729C3.13155 4.56024 3.13812 4.4616 3.16373 4.36711C3.18934 4.27261 3.23347 4.18415 3.29357 4.10686C3.35366 4.02958 3.42851 3.965 3.51378 3.91689C3.59904 3.86879 3.69302 3.8381 3.79024 3.82663C3.88747 3.81515 3.98601 3.82311 4.08013 3.85005C4.17425 3.87699 4.26208 3.92236 4.33852 3.98353L10.5346 8.80261L16.7307 3.98353C16.8856 3.86653 17.0804 3.81521 17.2729 3.84068C17.4653 3.86615 17.6401 3.96636 17.7592 4.11963C17.8784 4.2729 17.9325 4.46692 17.9097 4.65974C17.8869 4.85255 17.7892 5.02866 17.6376 5.14998Z" fill="black"/>
</svg>
