<svg width="14" height="20" viewBox="0 0 14 20" fill="none" xmlns="http://www.w3.org/2000/svg">
<path fill-rule="evenodd" clip-rule="evenodd" d="M1.23075 6.76953C1.63542 6.76953 1.96346 7.09758 1.96346 7.50224V8.96765C1.96346 11.7869 4.27317 14.0966 7.09242 14.0966C9.91167 14.0966 12.2214 11.7869 12.2214 8.96765V7.50224C12.2214 7.09758 12.5494 6.76953 12.9541 6.76953C13.3587 6.76953 13.6868 7.09758 13.6868 7.50224V8.96765C13.6868 12.3487 11.1119 15.1542 7.82512 15.5213V17.7601H10.0232C10.4279 17.7601 10.756 18.0882 10.756 18.4929C10.756 18.8975 10.4279 19.2256 10.0232 19.2256H4.16159C3.75692 19.2256 3.42888 18.8975 3.42888 18.4929C3.42888 18.0882 3.75692 17.7601 4.16159 17.7601H6.35971V15.5213C3.07295 15.1542 0.498047 12.3487 0.498047 8.96765V7.50224C0.498047 7.09758 0.826091 6.76953 1.23075 6.76953Z" fill="#757272"/>
<path d="M7.09325 12.6314C6.60968 12.6302 6.13127 12.5319 5.68641 12.3424C5.24156 12.1528 4.83932 11.8757 4.50359 11.5277C3.8163 10.8346 3.43038 9.89815 3.42972 8.92202V3.83886C3.42784 3.35723 3.52132 2.87999 3.70476 2.43467C3.88821 1.98934 4.15799 1.58473 4.49856 1.24416C4.83912 0.903595 5.24373 0.633812 5.68906 0.450367C6.13439 0.266922 6.61163 0.173443 7.09325 0.175321C9.14758 0.175321 10.7568 1.78453 10.7568 3.83886V8.92202C10.7568 10.9672 9.11324 12.6314 7.09325 12.6314Z" fill="#757272"/>
</svg>
