<svg width="21" height="23" viewBox="0 0 21 23" fill="none" xmlns="http://www.w3.org/2000/svg">
<path d="M14.3098 2.68529C13.5497 1.76884 12.488 1.26416 11.3161 1.26416C10.138 1.26416 9.07272 1.76579 8.31608 2.67657C7.55124 3.59738 7.17858 4.84883 7.26608 6.20018C7.43952 8.86622 9.25631 11.035 11.3161 11.035C13.3758 11.035 15.1895 8.86665 15.3657 6.20105C15.4544 4.86192 15.0794 3.61309 14.3098 2.68529ZM18.1911 20.8058H4.44108C4.26111 20.8084 4.08287 20.7662 3.91935 20.6822C3.75582 20.5983 3.61112 20.4746 3.49577 20.3203C3.24186 19.9814 3.13952 19.5186 3.2153 19.0506C3.54499 17.0083 4.57389 15.2927 6.19108 14.0884C7.6278 13.0193 9.44772 12.4308 11.3161 12.4308C13.1844 12.4308 15.0044 13.0197 16.4411 14.0884C18.0583 15.2923 19.0872 17.0079 19.4169 19.0501C19.4926 19.5182 19.3903 19.981 19.1364 20.3199C19.0211 20.4743 18.8764 20.598 18.7129 20.682C18.5493 20.7661 18.3711 20.8084 18.1911 20.8058Z" fill="black"/>
</svg>
