<svg width="43" height="42" viewBox="0 0 43 42" fill="none" xmlns="http://www.w3.org/2000/svg">
<g filter="url(#filter0_b_1398_991)">
<circle cx="21.3947" cy="21.0333" r="20.796" fill="#F9E9E9"/>
<circle cx="21.3947" cy="21.0333" r="20.296" stroke="url(#paint0_linear_1398_991)"/>
</g>
<path d="M35.2501 14.9998C35.2457 14.5208 35.1038 14.0531 34.8412 13.6524C34.5786 13.2517 34.2064 12.9349 33.7689 12.7397C33.3314 12.5445 32.847 12.4791 32.3735 12.5513C31.8999 12.6235 31.457 12.8302 31.0975 13.1469C30.7381 13.4636 30.4772 13.8769 30.3459 14.3376C30.2146 14.7984 30.2185 15.2871 30.357 15.7457C30.4956 16.2043 30.763 16.6134 31.1274 16.9244C31.4918 17.2354 31.9379 17.4351 32.4126 17.4998C32.6752 18.2248 32.7857 18.9961 32.737 19.7656C32.6884 20.5352 32.4817 21.2865 32.1298 21.9726C31.778 22.6587 31.2885 23.265 30.692 23.7535C30.0954 24.2421 29.4046 24.6025 28.6626 24.8123C28.3329 24.0535 27.7616 23.4251 27.0376 23.0248C28.0737 21.7394 28.7249 20.1872 28.9162 18.5474C29.1074 16.9075 28.8309 15.2471 28.1184 13.7578C27.406 12.2685 26.2868 11.0111 24.89 10.1309C23.4933 9.25076 21.876 8.78369 20.2251 8.78369C18.5742 8.78369 16.9569 9.25076 15.5602 10.1309C14.1634 11.0111 13.0442 12.2685 12.3318 13.7578C11.6193 15.2471 11.3428 16.9075 11.534 18.5474C11.7253 20.1872 12.3765 21.7394 13.4126 23.0248C12.8389 23.3473 12.3601 23.815 12.0244 24.3811C11.6887 24.9472 11.5078 25.5917 11.5001 26.2498V27.4998C11.5001 28.4944 11.8952 29.4482 12.5985 30.1515C13.3017 30.8547 14.2555 31.2498 15.2501 31.2498H25.2501C26.2447 31.2498 27.1985 30.8547 27.9018 30.1515C28.605 29.4482 29.0001 28.4944 29.0001 27.4998V27.2623C30.1221 27.0003 31.1751 26.5016 32.0887 25.7995C33.0023 25.0975 33.7553 24.2084 34.2974 23.1917C34.8395 22.1751 35.158 21.0543 35.2318 19.9045C35.3056 18.7547 35.1328 17.6024 34.7251 16.5248C35.0638 16.0884 35.2484 15.5522 35.2501 14.9998ZM26.5001 27.4998C26.5001 27.8313 26.3684 28.1493 26.134 28.3837C25.8996 28.6181 25.5816 28.7498 25.2501 28.7498H15.2501C14.9186 28.7498 14.6006 28.6181 14.3662 28.3837C14.1318 28.1493 14.0001 27.8313 14.0001 27.4998V26.2498C14.0001 25.9183 14.1318 25.6003 14.3662 25.3659C14.6006 25.1315 14.9186 24.9998 15.2501 24.9998H15.7626C17.1164 25.8181 18.6682 26.2507 20.2501 26.2507C21.832 26.2507 23.3838 25.8181 24.7376 24.9998H25.2501C25.5816 24.9998 25.8996 25.1315 26.134 25.3659C26.3684 25.6003 26.5001 25.9183 26.5001 26.2498V27.4998ZM20.2501 23.7498C19.014 23.7498 17.8056 23.3832 16.7778 22.6965C15.75 22.0097 14.9489 21.0336 14.4759 19.8916C14.0028 18.7495 13.879 17.4929 14.1202 16.2805C14.3614 15.0681 14.9566 13.9545 15.8307 13.0804C16.7048 12.2063 17.8184 11.6111 19.0308 11.3699C20.2432 11.1287 21.4998 11.2525 22.6419 11.7256C23.7839 12.1986 24.76 12.9997 25.4468 14.0275C26.1335 15.0553 26.5001 16.2637 26.5001 17.4998C26.5001 18.3206 26.3384 19.1333 26.0244 19.8916C25.7103 20.6499 25.2499 21.3389 24.6695 21.9192C24.0892 22.4996 23.4002 22.96 22.6419 23.2741C21.8836 23.5881 21.0709 23.7498 20.2501 23.7498ZM20.2501 16.2498C20.0029 16.2498 19.7612 16.3231 19.5556 16.4605C19.3501 16.5978 19.1899 16.793 19.0953 17.0215C19.0006 17.2499 18.9759 17.5012 19.0241 17.7437C19.0724 17.9861 19.1914 18.2089 19.3662 18.3837C19.541 18.5585 19.7638 18.6776 20.0062 18.7258C20.2487 18.774 20.5 18.7493 20.7285 18.6547C20.9569 18.56 21.1521 18.3998 21.2894 18.1943C21.4268 17.9887 21.5001 17.747 21.5001 17.4998C21.5001 17.1683 21.3684 16.8503 21.134 16.6159C20.8996 16.3815 20.5816 16.2498 20.2501 16.2498Z" fill="black"/>
<defs>
<filter id="filter0_b_1398_991" x="-15.4014" y="-15.7627" width="73.5918" height="73.5918" filterUnits="userSpaceOnUse" color-interpolation-filters="sRGB">
<feFlood flood-opacity="0" result="BackgroundImageFix"/>
<feGaussianBlur in="BackgroundImage" stdDeviation="8"/>
<feComposite in2="SourceAlpha" operator="in" result="effect1_backgroundBlur_1398_991"/>
<feBlend mode="normal" in="SourceGraphic" in2="effect1_backgroundBlur_1398_991" result="shape"/>
</filter>
<linearGradient id="paint0_linear_1398_991" x1="44.2703" y1="-9.52509" x2="-97.988" y2="-9.34002" gradientUnits="userSpaceOnUse">
<stop stop-color="#C4C4C4"/>
<stop offset="1" stop-color="#C4C4C4" stop-opacity="0"/>
</linearGradient>
</defs>
</svg>
