<svg width="26" height="26" viewBox="0 0 26 26" fill="none" xmlns="http://www.w3.org/2000/svg">
<path d="M6.37697 16.3875L16.4395 22.1583C16.984 22.4727 17.602 22.6375 18.2307 22.6357C18.8595 22.634 19.4766 22.4659 20.0193 22.1485C20.5621 21.8311 21.0112 21.3757 21.321 20.8286C21.6308 20.2814 21.7903 19.662 21.7832 19.0333L21.7832 7.45C21.7832 6.50516 21.4079 5.59903 20.7398 4.93093C20.0717 4.26283 19.1656 3.8875 18.2207 3.8875C17.5953 3.88856 16.981 4.05378 16.4395 4.36666L6.37697 10.1375C5.83629 10.4504 5.38739 10.9 5.07533 11.4412C4.76325 11.9824 4.59898 12.5961 4.59898 13.2208C4.59898 13.8455 4.76325 14.4593 5.07533 15.0004C5.38739 15.5416 5.83629 15.9912 6.37697 16.3042V16.3875ZM7.41864 12.0229L17.4811 6.16875C17.7067 6.04093 17.9615 5.97374 18.2207 5.97374C18.48 5.97374 18.7348 6.04093 18.9603 6.16875C19.1852 6.29859 19.372 6.48536 19.5018 6.71027C19.6316 6.93518 19.6999 7.1903 19.6999 7.45V19.075C19.6999 19.3347 19.6316 19.5898 19.5018 19.8147C19.372 20.0396 19.1852 20.2264 18.9603 20.3562C18.7338 20.4821 18.4798 20.5501 18.2207 20.5542C17.9618 20.5488 17.7081 20.4809 17.4811 20.3562L7.41864 14.5437C7.19366 14.414 7.00682 14.2272 6.87691 14.0023C6.74701 13.7774 6.67862 13.5222 6.67862 13.2625C6.67862 13.0028 6.74701 12.7476 6.87691 12.5227C7.00682 12.2978 7.19366 12.111 7.41864 11.9812V12.0229Z" fill="black"/>
</svg>
