<svg width="28" height="28" viewBox="0 0 28 28" fill="none" xmlns="http://www.w3.org/2000/svg">
<path d="M14.527 14.5102C15.1272 13.9906 15.6087 13.3479 15.9387 12.6258C16.2687 11.9038 16.4395 11.1191 16.4395 10.3252C16.4395 8.83335 15.8468 7.40261 14.7919 6.34772C13.737 5.29283 12.3063 4.7002 10.8145 4.7002C9.32261 4.7002 7.89187 5.29283 6.83698 6.34772C5.78209 7.40261 5.18945 8.83335 5.18945 10.3252C5.18944 11.1191 5.36023 11.9038 5.69022 12.6258C6.02021 13.3479 6.50168 13.9906 7.10195 14.5102C5.52711 15.2233 4.19098 16.3749 3.25331 17.8273C2.31564 19.2797 1.81611 20.9714 1.81445 22.7002C1.81445 22.9986 1.93298 23.2847 2.14396 23.4957C2.35494 23.7067 2.64108 23.8252 2.93945 23.8252C3.23782 23.8252 3.52397 23.7067 3.73495 23.4957C3.94593 23.2847 4.06445 22.9986 4.06445 22.7002C4.06445 20.91 4.77561 19.1931 6.04148 17.9272C7.30735 16.6614 9.02424 15.9502 10.8145 15.9502C12.6047 15.9502 14.3216 16.6614 15.5874 17.9272C16.8533 19.1931 17.5645 20.91 17.5645 22.7002C17.5645 22.9986 17.683 23.2847 17.894 23.4957C18.1049 23.7067 18.3911 23.8252 18.6895 23.8252C18.9878 23.8252 19.274 23.7067 19.4849 23.4957C19.6959 23.2847 19.8145 22.9986 19.8145 22.7002C19.8128 20.9714 19.3133 19.2797 18.3756 17.8273C17.4379 16.3749 16.1018 15.2233 14.527 14.5102ZM10.8145 13.7002C10.1469 13.7002 9.49442 13.5023 8.9394 13.1314C8.38439 12.7606 7.95181 12.2335 7.69636 11.6168C7.44091 11.0001 7.37408 10.3215 7.5043 9.66677C7.63453 9.01208 7.95597 8.41071 8.42797 7.93871C8.89997 7.46671 9.50134 7.14527 10.156 7.01505C10.8107 6.88482 11.4893 6.95166 12.106 7.2071C12.7227 7.46255 13.2498 7.89513 13.6207 8.45015C13.9915 9.00516 14.1895 9.65768 14.1895 10.3252C14.1895 11.2203 13.8339 12.0787 13.2009 12.7117C12.568 13.3446 11.7096 13.7002 10.8145 13.7002ZM21.772 14.0602C22.4919 13.2494 22.9622 12.2479 23.1262 11.1761C23.2902 10.1043 23.141 9.0079 22.6964 8.01895C22.2519 7.02999 21.531 6.19059 20.6205 5.6018C19.71 5.013 18.6487 4.69991 17.5645 4.7002C17.2661 4.7002 16.9799 4.81872 16.769 5.0297C16.558 5.24068 16.4395 5.52683 16.4395 5.8252C16.4395 6.12356 16.558 6.40971 16.769 6.62069C16.9799 6.83167 17.2661 6.9502 17.5645 6.9502C18.4596 6.9502 19.318 7.30577 19.9509 7.93871C20.5839 8.57165 20.9395 9.43009 20.9395 10.3252C20.9379 10.9161 20.7812 11.4962 20.485 12.0075C20.1889 12.5189 19.7637 12.9435 19.252 13.2389C19.0852 13.3352 18.9459 13.4726 18.8474 13.638C18.7489 13.8035 18.6945 13.9915 18.6895 14.1839C18.6847 14.3749 18.7288 14.564 18.8173 14.7332C18.9059 14.9025 19.0361 15.0464 19.1957 15.1514L19.6345 15.4439L19.7807 15.5227C21.1368 16.1659 22.2808 17.1832 23.0781 18.4548C23.8753 19.7264 24.2926 21.1994 24.2807 22.7002C24.2807 22.9986 24.3992 23.2847 24.6102 23.4957C24.8212 23.7067 25.1073 23.8252 25.4057 23.8252C25.7041 23.8252 25.9902 23.7067 26.2012 23.4957C26.4122 23.2847 26.5307 22.9986 26.5307 22.7002C26.5399 20.9738 26.1075 19.2737 25.2746 17.7615C24.4417 16.2493 23.236 14.9752 21.772 14.0602Z" fill="black"/>
</svg>
